<?xml version="1.0" standalone="no"?>
<!DOCTYPE svg PUBLIC "-//W3C//DTD SVG 20010904//EN"
 "http://www.w3.org/TR/2001/REC-SVG-20010904/DTD/svg10.dtd">
<svg version="1.0" xmlns="http://www.w3.org/2000/svg"
 width="667.000000pt" height="1000.000000pt" viewBox="0 0 667.000000 1000.000000"
 preserveAspectRatio="xMidYMid meet">
<metadata>
Created by potrace 1.16, written by Peter Selinger 2001-2019
</metadata>
<g transform="translate(0.000000,1000.000000) scale(0.100000,-0.100000)"
fill="#000000" stroke="none">
<path d="M6612 9988 c-7 -7 -12 -20 -12 -29 0 -9 -7 -19 -15 -23 -8 -3 -22
-23 -31 -45 -8 -22 -22 -42 -30 -45 -15 -6 -20 -56 -5 -56 5 0 16 -3 25 -6 11
-4 16 0 16 13 0 18 53 73 71 73 5 0 9 7 9 15 0 8 7 15 15 15 8 0 15 5 15 10 0
6 -9 10 -19 10 -11 0 -23 5 -26 10 -4 7 2 9 19 4 24 -6 26 -4 26 30 0 31 -3
36 -23 36 -13 0 -28 -5 -35 -12z"/>
<path d="M6219 9417 c-26 -30 -31 -32 -125 -39 -55 -4 -137 -11 -184 -16 -47
-6 -215 -15 -375 -21 -361 -15 -461 -21 -447 -30 6 -4 60 -8 119 -10 65 -1
110 -7 115 -13 4 -8 116 -11 382 -11 l376 1 2 -241 c1 -231 1 -236 9 -107 13
239 19 280 37 280 11 0 13 -3 5 -8 -6 -4 -9 -19 -6 -35 6 -28 18 -35 26 -14 3
6 6 2 6 -10 1 -13 7 -23 16 -23 20 0 29 43 15 70 -11 20 -10 21 9 15 19 -6 21
-3 19 23 -1 17 3 37 10 45 7 8 10 21 7 29 -4 9 1 18 9 21 19 7 21 34 4 39 -7
3 -5 13 7 31 16 25 15 58 -2 56 -4 0 -20 -15 -34 -32z"/>
<path d="M0 9274 l0 -46 405 4 405 4 1 -116 c1 -63 5 -198 9 -300 7 -168 8
-158 6 113 -2 207 1 300 8 302 6 2 339 6 740 9 577 4 731 8 738 18 4 7 8 9 8
3 0 -6 37 -11 85 -13 90 -3 122 14 38 21 -27 2 21 4 105 5 83 1 151 -1 150 -5
-4 -11 6 -13 50 -12 l37 2 -40 7 c-28 5 -1 8 90 10 l130 3 -145 7 c-80 4 -363
8 -629 9 -267 1 -488 4 -491 6 -3 2 -387 6 -853 10 l-847 6 0 -47z"/>
<path d="M4765 8245 c0 -555 1 -784 2 -508 2 276 2 730 0 1010 -1 279 -2 54
-2 -502z"/>
<path d="M3455 7555 c0 -467 1 -657 2 -422 2 236 2 618 0 850 -1 232 -2 40 -2
-428z"/>
<path d="M4146 6475 c-23 -18 -14 -20 12 -4 26 16 124 -21 173 -66 47 -42 106
-59 298 -85 84 -11 155 -20 157 -20 1 0 -8 -19 -21 -42 -37 -65 -31 -119 20
-180 14 -16 25 -34 25 -39 0 -5 -35 -10 -77 -11 -78 -1 -78 -1 -23 -8 30 -4
50 -7 44 -8 -16 -3 -95 -85 -88 -92 3 -3 11 2 17 10 20 26 82 69 116 81 27 9
35 8 51 -6 14 -13 35 -16 102 -14 45 1 94 -1 106 -5 24 -8 24 -8 -11 -39 -19
-18 -54 -43 -78 -56 -24 -13 -53 -32 -64 -42 -11 -9 -31 -19 -45 -21 -14 -1
-25 -9 -25 -17 0 -8 -15 -21 -32 -30 -36 -18 -44 -36 -12 -28 15 4 19 2 15
-10 -3 -8 -6 -17 -6 -19 0 -2 -9 -4 -20 -4 -31 0 -71 -22 -66 -37 3 -7 -1 -13
-11 -13 -13 0 -13 -3 -3 -15 9 -10 9 -15 1 -15 -10 0 -9 -37 5 -98 2 -12 0
-31 -6 -42 -10 -18 -6 -19 57 -22 75 -3 73 1 58 -84 l-5 -31 -178 -6 c-283
-11 -3096 -29 -3057 -21 11 3 30 7 43 10 18 4 21 9 16 29 -5 22 -3 25 20 25
14 0 26 5 26 11 0 6 -7 8 -16 5 -9 -4 -23 -1 -32 6 -13 11 -10 14 19 19 19 4
-20 6 -86 5 l-120 -1 -3 -56 -3 -56 58 -9 c75 -11 230 -11 1925 0 l1417 9 -8
-34 c-10 -43 7 -86 32 -81 9 2 17 9 17 15 0 7 20 31 45 55 l44 42 263 -1 c244
-1 542 -13 421 -17 -63 -2 -71 -21 -10 -23 38 -1 39 -2 12 -8 l-30 -6 24 -17
24 -17 -24 -20 -24 -20 68 -1 c62 0 67 2 67 22 0 21 0 21 20 3 20 -18 21 -18
44 6 21 23 23 47 5 59 -4 3 15 5 42 6 27 0 55 6 62 13 10 11 7 12 -13 7 -24
-7 -24 -6 -6 8 11 9 27 16 37 16 9 0 32 7 52 15 30 12 35 20 39 54 2 21 -4 77
-14 123 -10 45 -20 105 -24 131 -4 26 -11 50 -15 53 -5 3 -9 19 -9 35 0 17 -5
40 -11 51 -6 11 -15 44 -19 72 -7 48 -29 115 -40 126 -16 15 -40 62 -40 78 0
11 -7 25 -15 32 -8 7 -15 21 -15 31 0 12 -7 19 -20 19 -17 0 -20 7 -20 40 0
22 -4 40 -10 40 -6 0 -10 -28 -10 -63 0 -34 -5 -101 -11 -147 -9 -75 -14 -88
-40 -112 -17 -16 -34 -28 -40 -28 -5 0 -9 -11 -9 -24 0 -22 -26 -43 -38 -31
-3 3 -2 5 2 5 4 0 2 9 -4 20 -8 15 -17 19 -35 14 -15 -4 -25 -2 -25 5 0 6 6
11 13 11 6 0 0 8 -15 18 -28 17 -36 32 -18 32 6 0 10 5 10 11 0 6 -10 9 -22 8
-33 -3 -99 12 -93 21 3 4 -2 11 -11 14 -9 3 -12 2 -9 -5 4 -6 -3 -7 -19 -3
-18 4 -37 -1 -62 -15 -20 -12 -38 -20 -41 -18 -8 8 86 57 109 57 13 0 39 11
58 25 19 14 40 25 47 25 17 0 17 16 -1 23 -18 7 -54 -2 -82 -20 -25 -16 -135
-46 -142 -38 -3 2 3 8 12 11 14 5 15 9 5 15 -11 6 -9 14 9 38 23 31 28 51 13
51 -8 0 -54 -33 -79 -57 -7 -7 -16 -13 -19 -13 -5 0 5 15 37 55 18 22 52 105
43 105 -13 0 -114 -94 -130 -121 -9 -16 -20 -29 -23 -29 -3 0 -57 40 -120 90
-164 128 -174 132 -435 166 -118 15 -161 26 -175 43 -5 6 -101 53 -171 84 -58
25 -101 29 -123 12z m752 -212 c37 -21 221 -163 260 -200 6 -6 12 -18 12 -26
0 -9 -6 -18 -12 -20 -10 -4 -9 -8 2 -17 12 -9 10 -10 -10 -5 -22 6 -20 2 15
-30 39 -36 39 -36 4 -11 -20 14 -39 26 -43 26 -11 0 -42 27 -74 66 -29 36 -93
74 -125 74 -43 0 -97 -39 -98 -70 0 -22 -3 -20 -19 15 -19 40 -28 183 -14 219
8 20 43 13 102 -21z m582 -391 c0 -14 51 -33 70 -27 19 6 37 -26 25 -45 -3 -5
-1 -19 6 -31 9 -19 9 -21 -4 -16 -8 3 -18 0 -20 -8 -7 -17 3 -58 17 -67 16
-11 -26 -9 -44 2 -10 6 -20 4 -32 -7 -15 -13 -25 -14 -51 -7 -17 6 -42 8 -55
5 l-24 -6 26 -24 c23 -22 26 -22 48 -7 25 18 63 22 53 6 -3 -5 -18 -10 -33
-10 -24 -1 -25 -2 -9 -11 11 -6 32 -9 48 -7 16 3 29 1 29 -4 0 -13 -43 -27
-55 -18 -27 19 -42 18 -40 -3 1 -12 0 -14 -2 -5 -2 9 -24 28 -48 43 -30 17
-42 30 -39 40 4 8 9 13 13 11 14 -8 53 15 48 28 -4 9 1 17 11 19 9 3 0 5 -20
6 -21 0 -38 -3 -38 -9 0 -18 -29 -11 -40 10 -7 14 -21 20 -43 20 -23 0 -28 3
-18 9 8 5 42 7 75 5 101 -7 155 -6 173 5 14 8 5 10 -38 9 -71 -1 -91 6 -106
37 -10 22 -9 25 8 25 10 0 19 5 19 10 0 6 10 15 23 20 28 11 67 12 67 2z m-34
-410 c15 -9 11 -10 -21 -6 -22 3 -48 7 -58 9 -9 2 -15 -1 -11 -6 3 -5 20 -9
37 -9 28 -1 29 -2 14 -11 -10 -6 -27 -9 -37 -6 -13 3 -16 0 -13 -13 3 -10 16
-21 30 -25 54 -13 24 -18 -185 -31 -92 -5 -152 7 -152 31 0 5 -5 3 -11 -5 -8
-11 -9 -8 -4 15 4 17 15 39 25 50 18 19 31 20 193 19 104 -1 182 -6 193 -12z"/>
<path d="M2637 5992 c-85 -2 -117 -6 -115 -14 3 -8 31 -12 77 -12 l73 -1 4
-65 c2 -36 6 -82 9 -103 4 -25 2 -36 -5 -32 -5 3 -10 21 -10 40 0 19 -4 36 -9
39 -5 3 -6 -13 -4 -37 l5 -42 -41 -2 c-23 0 -48 -7 -56 -13 -13 -11 -15 -1
-15 74 0 48 -5 96 -10 107 -13 23 -40 26 -40 4 0 -8 -4 -15 -9 -15 -14 0 -21
-60 -26 -194 -2 -72 -8 -122 -15 -126 -12 -7 31 -30 58 -30 16 0 17 16 14 187
-2 104 -1 186 2 183 3 -4 16 -306 16 -382 0 -4 15 -2 33 4 17 5 48 11 67 13
58 5 164 27 178 38 8 7 12 5 12 -7 0 -9 -4 -16 -10 -16 -5 0 -10 -7 -10 -15 0
-8 6 -15 13 -15 7 0 17 -10 22 -22 6 -13 18 -22 27 -22 10 1 15 -2 12 -7 -3
-5 9 -9 25 -9 17 0 31 -5 31 -11 0 -8 -21 -9 -67 -5 -45 4 -61 3 -48 -3 11 -5
88 -10 171 -10 l151 -1 -6 43 c-13 85 -16 81 84 88 50 3 78 6 64 7 -36 3 -39
9 -24 52 9 26 10 41 3 48 -7 7 -5 20 5 41 18 36 6 41 -32 14 -22 -15 -22 -17
-7 -28 10 -8 14 -19 10 -29 -6 -14 -8 -15 -18 -2 -8 12 -21 13 -55 6 -24 -4
-51 -6 -60 -5 -9 2 -19 4 -23 4 -5 1 -8 12 -8 26 0 14 -5 25 -11 25 -7 0 -9
38 -5 121 l6 121 -157 -3 c-87 -2 -211 -5 -276 -7z m405 -34 c3 -7 6 -54 7
-104 l3 -92 -35 0 c-19 0 -48 -7 -65 -16 -17 -9 -46 -15 -64 -13 -18 2 -49 0
-69 -3 -34 -6 -35 -5 -32 19 4 21 2 23 -6 11 -8 -11 -10 6 -5 66 5 61 3 83 -6
89 -10 6 -11 2 -6 -18 10 -42 -5 -165 -21 -171 -11 -5 -13 -1 -7 17 11 32 8
108 -5 137 -9 20 -11 12 -7 -46 3 -39 0 -77 -6 -85 -8 -11 -9 -11 -5 3 3 9 2
18 -4 20 -5 2 -12 47 -16 101 l-6 97 175 0 c132 0 177 -3 180 -12z"/>
<path d="M3903 5919 c-46 -13 -63 -41 -52 -87 10 -43 4 -68 -16 -76 -8 -3 -28
-34 -44 -70 -17 -36 -35 -68 -41 -71 -6 -4 -8 -11 -5 -16 3 -5 -1 -6 -9 -3
-12 5 -16 -1 -16 -25 0 -20 5 -31 13 -30 39 5 47 -1 47 -36 l0 -35 53 0 c28 1
66 7 82 15 l30 13 -27 1 c-15 1 -36 10 -47 22 -16 17 -17 26 -10 52 6 18 8 54
7 82 l-3 49 40 8 c22 5 60 8 85 6 43 -3 45 -4 42 -33 -2 -16 -6 -66 -10 -110
-6 -73 -9 -80 -27 -77 -18 3 -18 2 3 -13 31 -22 86 -16 90 10 7 35 24 43 20
10 -3 -29 -1 -30 34 -29 20 1 44 4 54 8 16 6 16 8 4 16 -8 6 -24 10 -35 10
-18 0 -20 8 -23 91 -3 69 0 94 10 100 8 6 0 9 -24 9 -21 0 -38 4 -38 9 0 5
-16 31 -37 57 -32 43 -36 54 -34 101 l2 53 -43 -1 c-24 0 -57 -5 -75 -10z"/>
<path d="M1905 5693 c-18 -3 -20 -12 -20 -110 0 -96 -2 -106 -19 -109 -14 -2
-16 0 -7 9 20 20 12 34 -19 35 -32 1 -50 -16 -30 -28 9 -5 9 -9 1 -14 -26 -16
3 -24 76 -21 43 2 171 4 286 4 116 0 207 4 207 10 0 4 -7 14 -15 21 -10 9 -15
9 -15 1 0 -6 -4 -11 -10 -11 -5 0 -10 8 -10 18 0 10 -6 19 -12 19 -42 3 -93
14 -102 23 -5 5 -21 10 -35 10 -18 0 -22 3 -14 11 6 6 9 18 6 25 -10 26 17 73
45 78 43 8 62 4 62 -13 0 -14 2 -14 10 -1 5 8 10 18 10 23 0 11 -208 9 -215
-3 -4 -6 -6 -41 -6 -80 l0 -69 -33 -11 c-40 -13 -58 -7 -72 24 -8 18 -8 28 -1
35 8 8 6 11 -6 11 -21 0 -21 8 0 32 9 11 11 18 5 18 -7 0 -12 11 -12 25 0 24
3 25 63 26 l62 2 -50 7 c-53 9 -98 10 -130 3z"/>
<path d="M5760 4872 c0 -34 -4 -64 -10 -67 -5 -3 -10 -24 -10 -46 0 -21 5 -39
10 -39 22 0 8 -20 -30 -41 -22 -13 -39 -27 -39 -33 5 -43 -2 -56 -28 -56 -16
0 -35 -5 -43 -10 -11 -7 -3 -10 30 -11 41 -2 42 -3 10 -6 -19 -3 -39 -9 -44
-14 -13 -12 -86 -12 -86 1 0 17 -25 11 -38 -10 -12 -20 -42 -28 -42 -11 0 12
-95 20 -133 11 -31 -8 -30 -8 13 -10 l45 -2 -34 -12 -34 -12 34 -10 34 -11
-42 -7 c-24 -4 -43 -12 -43 -16 0 -5 -14 -7 -30 -5 -17 2 -28 0 -25 -6 4 -5
12 -9 18 -9 7 0 13 -9 13 -20 0 -14 -7 -20 -23 -20 -13 0 -22 3 -21 8 1 4 -8
38 -20 75 -13 37 -19 73 -16 80 4 7 4 9 -1 5 -14 -13 -49 52 -79 142 -15 47
-35 90 -43 97 -9 7 -13 19 -9 28 3 9 2 13 -4 10 -6 -3 -10 0 -10 8 0 8 -7 20
-15 27 -13 11 -15 9 -12 -8 2 -12 6 -25 10 -28 13 -13 7 -44 -9 -44 -13 0 -13
-2 -2 -13 7 -7 21 -16 31 -20 11 -4 21 -16 24 -27 3 -11 9 -20 13 -20 4 0 13
-19 19 -42 7 -24 17 -48 21 -53 5 -6 18 -37 31 -70 12 -33 25 -64 29 -70 5 -5
11 -26 15 -47 6 -30 4 -37 -13 -42 -22 -7 -32 -62 -32 -183 l0 -73 39 -20 c98
-50 104 -158 13 -228 -30 -23 -43 -26 -101 -25 -55 2 -184 30 -143 32 11 1 11
3 0 14 -7 7 -21 16 -30 20 -11 4 -18 17 -18 32 0 14 -4 25 -10 25 -18 0 -11
74 10 108 13 21 31 35 50 39 17 3 33 10 37 16 12 19 5 240 -8 247 -6 4 -8 13
-5 19 4 6 1 11 -8 11 -21 0 -29 -17 -11 -24 22 -8 22 -166 -1 -166 -8 0 -13 4
-10 8 2 4 1 14 -3 21 -6 9 -18 -3 -40 -38 -26 -43 -31 -62 -31 -112 0 -50 -8
-76 -45 -158 -40 -87 -58 -145 -37 -116 9 13 102 17 102 5 0 -6 15 -9 33 -8
37 1 196 -10 245 -18 17 -3 32 -9 32 -14 0 -11 92 -24 155 -21 70 3 165 -9
165 -21 0 -5 -13 -7 -30 -3 -19 4 -30 3 -30 -4 0 -6 10 -11 23 -12 20 0 21 -1
2 -8 -36 -14 38 -21 155 -14 80 4 110 3 110 -5 0 -7 -4 -12 -10 -12 -5 0 -7
-7 -3 -16 4 -10 14 -14 29 -11 13 2 22 -1 21 -7 -1 -6 9 -10 24 -8 15 2 34 -4
43 -13 18 -18 92 -23 107 -8 7 7 23 6 48 -3 21 -7 58 -14 82 -15 24 -1 51 -8
59 -15 8 -6 35 -19 60 -27 l45 -16 -50 -2 -50 -2 65 -7 c101 -12 212 -12 205
0 -3 6 -39 10 -78 10 -59 1 -68 3 -52 12 31 18 162 8 150 -12 -5 -9 73 -25 81
-17 3 2 -10 10 -28 18 -18 7 -35 15 -38 18 -10 11 -87 52 -235 126 -139 69
-214 114 -190 115 13 0 6 90 -6 90 -5 0 -9 25 -8 55 1 33 -3 61 -11 70 -9 11
-14 49 -14 120 -1 57 1 100 4 95 3 -4 23 -5 45 -1 37 7 38 8 15 15 -14 5 -38
14 -55 21 -16 7 -38 15 -47 19 -16 5 -18 19 -18 101 0 96 -9 125 -40 125 -6 0
-8 5 -4 11 4 8 -1 9 -17 4 -16 -4 -20 -3 -11 3 16 11 7 76 -14 97 -8 7 -14 20
-14 29 0 8 -8 20 -17 25 -10 6 -13 11 -7 11 12 0 -4 91 -19 106 -4 4 -7 24 -7
44 0 21 -7 43 -15 50 -13 11 -15 5 -15 -48z"/>
<path d="M6196 4768 c-3 -13 -6 -67 -6 -120 l0 -97 33 -9 c17 -5 34 -8 37 -6
3 1 5 58 5 126 l0 123 -31 3 c-26 3 -33 -1 -38 -20z"/>
<path d="M5070 4560 c0 -25 -17 -26 -23 -2 -3 9 -5 2 -6 -16 0 -18 -5 -31 -11
-27 -5 3 -7 12 -3 20 8 22 -11 18 -32 -5 -10 -11 -18 -34 -18 -50 0 -17 -5
-30 -11 -31 -6 -1 0 -5 14 -9 14 -4 63 -8 110 -8 47 1 75 3 62 5 -12 2 -20 9
-17 14 9 13 -9 11 -23 -3 -10 -10 -15 -10 -22 2 -14 21 -12 30 5 30 17 0 20
35 4 45 -7 5 -4 14 8 28 10 11 12 17 6 13 -7 -4 -13 -2 -13 3 0 6 -7 11 -15
11 -8 0 -15 -9 -15 -20z"/>
<path d="M4430 4331 c0 -6 -9 -11 -19 -11 -12 0 -21 -8 -23 -22 -4 -25 -28
-37 -28 -14 0 9 -4 16 -10 16 -10 0 -8 -35 3 -46 3 -3 0 -13 -8 -20 -7 -7 -16
-33 -20 -56 -4 -24 -12 -49 -17 -55 -6 -7 -8 -20 -4 -28 3 -10 -1 -15 -13 -15
-15 0 -21 -10 -26 -40 -4 -22 -11 -40 -16 -40 -5 0 -9 -6 -9 -14 0 -8 -6 -17
-12 -19 -10 -4 -10 -6 0 -6 26 -2 0 -21 -29 -21 -16 0 -29 -4 -29 -9 0 -12 86
-41 122 -41 15 0 28 -4 28 -9 0 -7 183 -51 213 -51 7 0 -7 9 -29 19 -92 42
-186 258 -155 354 12 36 68 87 95 87 20 0 21 24 1 40 -10 9 -15 9 -15 1z"/>
<path d="M1097 4034 c-4 -4 -7 -18 -7 -32 0 -43 -23 -103 -43 -114 -32 -16
-108 -3 -129 22 l-18 22 0 -25 c0 -30 16 -37 83 -37 29 0 65 -7 81 -15 29 -15
133 -20 152 -7 6 4 3 14 -10 26 -16 16 -18 16 -13 3 3 -9 2 -19 -3 -22 -6 -4
-10 7 -10 24 0 24 -4 31 -19 31 -30 0 -51 11 -51 26 0 8 5 14 12 14 6 0 8 3 5
7 -4 3 -2 12 4 20 8 8 8 13 1 13 -6 0 -14 12 -19 26 -5 14 -12 22 -16 18z"/>
<path d="M2448 3848 c-4 -10 -102 -14 -429 -18 l-424 -5 -1 -88 c-3 -142 -48
-127 367 -127 l358 0 16 23 c9 12 29 42 44 67 16 25 45 71 65 103 24 38 31 57
22 57 -8 0 -16 -6 -18 -12z"/>
<path d="M1388 3704 c-128 -102 -128 -94 -4 -94 l109 0 -8 58 c-4 31 -7 67 -6
80 0 12 -1 22 -3 22 -2 0 -42 -30 -88 -66z"/>
<path d="M6065 3420 l-330 -5 290 -4 c160 -2 317 -6 350 -10 l60 -7 -35 -17
c-19 -9 -30 -16 -25 -17 6 0 4 -4 -4 -9 -11 -7 -6 -12 20 -19 l34 -9 -50 -7
c-27 -4 -61 -10 -75 -14 -24 -6 -24 -6 6 -10 l30 -3 -3 -77 c-3 -86 14 -172
34 -172 9 0 13 -14 13 -40 0 -40 -15 -55 -23 -22 -2 9 -2 1 1 -18 3 -19 5 -46
5 -60 -6 -126 -7 -508 -1 -502 4 4 9 25 11 47 3 22 3 -3 1 -55 -1 -52 -3 -97
-4 -100 0 -3 -6 4 -12 15 -12 19 -13 18 -18 -10 -3 -17 -11 -30 -20 -30 -8 0
-17 -11 -20 -25 -5 -20 -14 -26 -45 -31 -22 -4 -65 -12 -95 -18 -30 -6 -102
-15 -160 -20 -90 -7 -96 -8 -40 -10 36 0 81 -6 100 -11 19 -6 97 -15 173 -22
87 -7 136 -16 134 -22 -2 -6 3 -17 10 -25 24 -23 8 -36 -60 -46 -65 -10 -100
-25 -58 -25 12 0 19 -4 16 -10 -4 -6 3 -26 15 -45 18 -30 19 -35 6 -35 -13 0
-16 -13 -16 -72 1 -40 5 -93 9 -117 15 -75 -13 -133 -47 -99 -9 9 -12 7 -12
-10 0 -18 6 -22 35 -22 34 0 35 -1 35 -38 0 -38 -23 -72 -48 -72 -16 0 -15
-17 1 -23 10 -4 10 -6 0 -6 -8 -1 -13 -14 -13 -32 0 -17 -7 -37 -15 -45 -8 -9
-16 -30 -17 -47 -1 -18 -2 -41 -2 -52 -1 -11 -7 -30 -14 -42 -28 -49 -14 -60
78 -64 90 -3 101 -1 98 18 -2 11 6 19 21 23 22 5 25 12 28 65 5 79 19 106 50
99 27 -7 27 -12 7 72 -13 58 -14 117 -9 393 4 179 10 340 14 356 4 17 4 53 0
80 -14 102 -5 519 23 1075 l3 55 -55 5 c-31 3 -204 3 -385 0z"/>
<path d="M0 3401 c0 -8 98 -11 370 -11 l370 0 0 -44 0 -44 -370 3 c-358 3
-370 2 -370 -16 0 -18 19 -26 45 -19 6 2 24 4 42 6 26 2 33 -1 36 -19 l4 -22
8 23 c5 16 15 22 35 22 16 0 31 -6 33 -12 4 -9 8 -10 14 -2 11 13 110 17 118
3 5 -7 11 -6 21 1 9 8 80 12 211 13 l198 2 6 -175 c4 -96 10 -347 14 -557 l8
-383 -397 0 c-348 0 -396 -2 -396 -15 0 -14 39 -15 333 -10 182 3 359 8 393 9
l61 4 -11 -33 c-7 -18 -9 -53 -6 -76 l5 -44 3 56 c5 96 -35 90 553 91 440 1
479 3 269 8 -135 4 -367 8 -517 9 l-271 1 -6 73 c-8 107 -28 1026 -22 1035 6
9 120 7 136 -3 6 -3 10 -2 10 2 0 5 57 8 128 8 70 0 188 2 262 5 88 4 12 7
-217 8 l-353 2 0 45 0 45 932 0 c512 0 929 2 927 4 -2 2 -590 8 -1307 12 -976
5 -1302 4 -1302 -5z"/>
<path d="M2623 3378 c12 -49 17 -216 23 -773 4 -319 10 -760 14 -980 6 -294 6
-193 4 380 -3 429 -7 902 -11 1050 -4 149 -7 287 -7 308 -1 24 -6 37 -15 37
-9 0 -11 -8 -8 -22z"/>
<path d="M797 1903 c1 -70 6 -257 9 -415 4 -178 10 -288 16 -288 6 0 8 93 4
263 -12 469 -16 562 -24 565 -5 1 -7 -55 -5 -125z"/>
<path d="M6315 999 c-4 -6 -18 -8 -31 -5 -19 5 -26 2 -34 -16 -5 -13 -9 -19
-9 -14 -1 5 -7 3 -15 -3 -8 -6 -38 -14 -67 -17 -77 -8 -99 -13 -99 -24 0 -20
44 -60 66 -60 15 0 28 -10 36 -27 11 -23 20 -28 46 -27 18 1 32 -2 32 -7 0 -5
6 -9 14 -9 7 0 19 -7 26 -15 11 -13 8 -15 -16 -16 -16 0 -22 -3 -14 -6 18 -7
90 -64 145 -116 22 -20 48 -40 58 -43 9 -3 17 -12 17 -20 0 -8 5 -12 11 -9 6
4 13 -2 16 -14 3 -12 11 -21 17 -21 7 0 27 -21 44 -47 17 -27 45 -57 61 -68
17 -11 31 -23 31 -27 0 -5 5 -8 10 -8 15 0 12 108 -3 117 -8 4 -33 37 -57 73
-52 78 -102 144 -112 148 -5 2 -8 8 -8 14 0 5 -11 24 -25 42 -14 18 -25 38
-25 43 0 6 -6 16 -14 22 -15 12 -76 132 -76 149 0 16 -18 24 -25 11z"/>
</g>
</svg>
